:version 1.10
:name ASF
:units
  mass 1
  length 1
  angle deg
:documentation
  ASF file generated by Kaydara
:root
  axis xyz
  order  tx ty tz rx ry rz
  position 0 0 0
  orientation 0 0 0
:bonedata
  begin
    id 1
    name LeftUpLegDummy
    direction 1 -2.30186e-007 -8.31532e-007
    length 2.93387
    axis 0 0 0 xyz
  end
  begin
    id 2
    name LeftUpLeg
    direction -1.82929e-007 -1 -1.48925e-009
    length 17.3336
    axis -3.48766 0.00143442 -0.000521554 xyz
    dof rx ry rz
  end
  begin
    id 3
    name LeftLeg
    direction -1.82929e-007 -1 -5.23717e-011
    length 14.9995
    axis 3.68178 -0.00654042 -0.000282425 xyz
    dof rx ry rz
  end
  begin
    id 4
    name LeftFoot
    direction 8.31532e-007 -4.54534e-011 1
    length 6.74421
    axis 1.87234e-006 4.66016e-005 -5.96866e-006 xyz
    dof rx ry rz
  end
  begin
    id 5
    name LeftToes
    direction 0.00818058 -0.00485161 0.999955
    length 3.85048
    axis 1.06247e-005 4.65869e-005 -5.96999e-006 xyz
    dof rx ry rz
  end
  begin
    id 6
    name SpineDummy
    direction -5.8607e-008 0.943407 -0.331637
    length 5.93572
    axis 0 0 0 xyz
  end
  begin
    id 7
    name Spine
    direction -1.04988e-007 0.999988 0.00495137
    length 10.1015
    axis -0.001389 0.000121417 6.61666e-006 xyz
    dof rx ry rz
  end
  begin
    id 8
    name Spine1
    direction 0 0 0
    length 0
    axis -0.001389 0.00012144 6.56766e-006 xyz
    dof rx ry rz
  end
  begin
    id 9
    name RightShoulderDummy
    direction -0.98348 0.17941 -0.0240696
    length 3.59882
    axis -0.001389 0.00012144 6.56766e-006 xyz
  end
  begin
    id 10
    name RightShoulder
    direction -0.978693 0.204882 0.0135597
    length 2.70001
    axis 0.215806 0.000203631 -0.00679732 xyz
    dof rx ry rz
  end
  begin
    id 11
    name RightArm
    direction -1 3.85509e-006 8.31394e-007
    length 10.2459
    axis -23.2009 -0.134239 -0.964098 xyz
    dof rx ry rz
  end
  begin
    id 12
    name RightForeArm
    direction -1 3.85569e-006 8.3129e-007
    length 8.16799
    axis -9.92322 0.0658061 0.17887 xyz
    dof rx ry rz
  end
  begin
    id 13
    name RightHand
    direction -0.992843 -0.0414604 0.112003
    length 5.28593
    axis -0.00960638 0.00330669 -0.185225 xyz
    dof rx ry rz
  end
  begin
    id 14
    name LeftShoulder1Dummy
    direction 0.983523 0.179172 -0.0240748
    length 3.59866
    axis -0.001389 0.00012144 6.56766e-006 xyz
  end
  begin
    id 15
    name LeftShoulder1
    direction 0.978627 0.205195 0.0135605
    length 2.70019
    axis -0.001389 0.00012144 6.57583e-006 xyz
    dof rx ry rz
  end
  begin
    id 16
    name LeftArm
    direction 1 3.51895e-006 -8.60188e-007
    length 10.2459
    axis -23.1894 0.134785 0.967513 xyz
    dof rx ry rz
  end
  begin
    id 17
    name LeftForeArm
    direction 1 3.51921e-006 -7.32029e-007
    length 8.16799
    axis -9.91835 -0.0656957 -0.177789 xyz
    dof rx ry rz
  end
  begin
    id 18
    name LeftHand
    direction 0.992938 -0.0411636 0.11126
    length 5.32135
    axis -0.00960237 -0.00340661 0.185177 xyz
    dof rx ry rz
  end
  begin
    id 19
    name HEadDummy
    direction 1.01974e-006 0.999861 -0.016675
    length 2.99946
    axis -0.001389 0.00012144 6.56766e-006 xyz
  end
  begin
    id 20
    name HEad
    direction -0.0222689 0.980941 0.193023
    length 5.12695
    axis -0.001389 0.00012144 6.56766e-006 xyz
    dof rx ry rz
  end
  begin
    id 21
    name RightUpLegDummy
    direction -1 2.30186e-007 8.31532e-007
    length 2.93387
    axis 0 0 0 xyz
  end
  begin
    id 22
    name RightUpLeg
    direction -1.82966e-007 -1 1.56832e-007
    length 17.3336
    axis -3.4909 -0.000906625 0.00028951 xyz
    dof rx ry rz
  end
  begin
    id 23
    name RightLeg
    direction -1.82786e-007 -1 -1.80317e-007
    length 14.9995
    axis 3.68513 0.0193739 -0.131021 xyz
    dof rx ry rz
  end
  begin
    id 24
    name RightFoot
    direction 8.31721e-007 -4.63324e-011 1
    length 6.74421
    axis 4.81691e-005 -0.120479 -0.188785 xyz
    dof rx ry rz
  end
  begin
    id 25
    name RightToes
    direction 0.00124746 -0.014064 0.9999
    length 3.85082
    axis 0.000481921 0.542163 -0.142575 xyz
    dof rx ry rz
  end
:hierarchy
  begin
    root LeftUpLegDummy SpineDummy RightUpLegDummy
    LeftUpLegDummy LeftUpLeg
    LeftUpLeg LeftLeg
    LeftLeg LeftFoot
    LeftFoot LeftToes
    SpineDummy Spine
    Spine Spine1
    Spine1 RightShoulderDummy LeftShoulder1Dummy HEadDummy
    RightShoulderDummy RightShoulder
    RightShoulder RightArm
    RightArm RightForeArm
    RightForeArm RightHand
    LeftShoulder1Dummy LeftShoulder1
    LeftShoulder1 LeftArm
    LeftArm LeftForeArm
    LeftForeArm LeftHand
    HEadDummy HEad
    RightUpLegDummy RightUpLeg
    RightUpLeg RightLeg
    RightLeg RightFoot
    RightFoot RightToes
  end

:SAMPLES-PER-SECOND 30
:FULLY-SPECIFIED
:DEGREES
291
root  -0.765577 34.6536 29.6355 9.10254 -14.2295 -3.6169
LeftUpLeg  -6.01477 13.1674 9.69033
LeftLeg  5.36802 18.4024 0.531873
LeftFoot  7.81143 -0.171385 2.50986
LeftToes  -23.4623 2.60077e-006 -1.42232e-007
Spine  2.68807 -2.00956 -4.89672
Spine1  5.13801 -3.87338 -9.90551
RightShoulder  0.0663018 9.89403 1.78297
RightArm  -42.9005 21.7381 72.565
RightForeArm  7.9251 29.4029 5.69314
RightHand  0.412849 -6.46243 -6.92598
LeftShoulder1  0.0380855 -10.0159 -1.19229
LeftArm  -4.41936 -67.1316 -90.6528
LeftForeArm  7.80276 -41.538 -8.98136
LeftHand  0.939733 5.61929 18.5808
HEad  -11.6763 6.42363 -8.67803
RightUpLeg  -17.6402 -13.4939 4.85199
RightLeg  9.66037 23.4456 2.39706
RightFoot  9.40244 -0.299464 4.01753
RightToes  -22.6965 -0.100579 -0.198142
292
root  -0.715443 34.6562 29.6605 9.176 -14.4065 -3.61411
LeftUpLeg  -6.05091 13.1966 9.57424
LeftLeg  5.43803 18.5376 0.557916
LeftFoot  7.70086 -0.168041 2.49635
LeftToes  -23.3255 2.60077e-006 -1.42232e-007
Spine  2.6742 -1.95484 -4.84103
Spine1  5.09743 -3.75521 -9.80682
RightShoulder  0.0658615 9.77522 1.85238
RightArm  -42.706 21.5139 72.7961
RightForeArm  7.94225 29.9317 5.81743
RightHand  0.415701 -6.38677 -7.0631
LeftShoulder1  0.0371444 -9.72707 -1.16144
LeftArm  -3.12538 -67.2326 -91.9302
LeftForeArm  7.60104 -41.7781 -9.0582
LeftHand  0.984461 5.86708 18.6429
HEad  -11.5891 5.84565 -8.68251
RightUpLeg  -17.7346 -13.5066 4.78188
RightLeg  9.73603 23.6445 2.44693
RightFoot  9.4057 -0.303477 4.06092
RightToes  -22.768 -0.100894 -0.198697
293
root  -0.65808 34.659 29.7001 9.24391 -14.5164 -3.57691
LeftUpLeg  -6.07603 13.1975 9.41176
LeftLeg  5.48456 18.6609 0.576395
LeftFoot  7.57316 -0.163707 2.47583
LeftToes  -23.3276 2.60077e-006 -1.42232e-007
Spine  2.63988 -1.88395 -4.74696
Spine1  5.02336 -3.6113 -9.6241
RightShoulder  0.065203 9.57271 1.91624
RightArm  -42.3254 20.8886 73.0089
RightForeArm  8.12975 31.3061 6.14716
RightHand  0.434382 -6.3977 -7.38289
LeftShoulder1  0.0363779 -9.44303 -1.23747
LeftArm  -2.15712 -67.2764 -92.7836
LeftForeArm  7.31551 -42.0711 -9.15266
LeftHand  1.01578 6.28363 17.9584
HEad  -11.3721 5.16825 -8.58081
RightUpLeg  -17.7117 -13.3047 4.62043
RightLeg  9.59223 23.5296 2.37774
RightFoot  9.45776 -0.303705 4.06261
RightToes  -23.123 -0.10149 -0.201027
294
root  -0.600361 34.6624 29.7492 9.27769 -14.509 -3.50429
LeftUpLeg  -6.10676 13.2131 9.22641
LeftLeg  5.55422 18.6421 0.598115
LeftFoot  7.45029 -0.157859 2.43545
LeftToes  -23.2178 2.60077e-006 -1.42232e-007
Spine  2.58376 -1.83594 -4.60254
Spine1  4.91252 -3.52374 -9.3338
RightShoulder  0.0642464 9.36973 1.99203
RightArm  -41.8476 20.018 73.0932
RightForeArm  8.64233 33.0102 6.57039
RightHand  0.453719 -6.3733 -7.75782
LeftShoulder1  0.0357754 -9.19587 -1.36511
LeftArm  -1.82857 -67.2782 -93.2551
LeftForeArm  7.02124 -42.2245 -9.20229
LeftHand  1.02469 6.73407 16.8978
HEad  -10.8314 4.41518 -8.26997
RightUpLeg  -17.637 -13.0445 4.38617
RightLeg  9.44139 23.2495 2.29086
RightFoot  9.47874 -0.299942 4.01757
RightToes  -23.4003 -0.102381 -0.204158
295
root  -0.540517 34.6655 29.8145 9.25414 -14.4138 -3.40869
LeftUpLeg  -6.09923 13.3443 9.02503
LeftLeg  5.65988 18.4151 0.624479
LeftFoot  7.25763 -0.148538 2.34181
LeftToes  -23.0489 2.60077e-006 -1.42232e-007
Spine  2.50308 -1.81717 -4.40208
Spine1  4.75711 -3.50531 -8.92512
RightShoulder  0.0616004 9.21545 2.10629
RightArm  -41.2048 18.9571 73.0271
RightForeArm  8.97061 34.896 7.05869
RightHand  0.476971 -6.29048 -8.28501
LeftShoulder1  0.0353265 -9.09455 -1.51323
LeftArm  -2.48533 -67.199 -92.8395
LeftForeArm  6.35767 -42.3455 -9.24103
LeftHand  1.03959 7.41718 15.5514
HEad  -9.7461 3.4897 -7.77728
RightUpLeg  -17.5294 -12.8871 4.11652
RightLeg  9.40652 22.9749 2.25147
RightFoot  9.4094 -0.292949 3.93575
RightToes  -23.7901 -0.103579 -0.207416
